<svg xmlns="http://www.w3.org/2000/svg" width="14" height="14">
    <path fill-rule="evenodd" d="M13.001 9.668c-.087 1.967-.979 3.064-2.16 3.54-.869.349-1.717.347-4.175.347-2.396 0-4.073.168-5.304-1.11C.154 11.191.292 9.516.292 6.941c0-2.516-.157-4.232 1.07-5.504C2.095.675 3.006.416 4.038.366 5.213.312 8.12.309 9.293.366c2.401.115 3.603 1.525 3.708 3.848.053 1.219.055 4.235 0 5.454zm-1.11-2.727c0-1.766-.007-1.976-.037-2.673-.133-3.059-2.356-2.751-5.188-2.751l-.024-.016c-1.705 0-1.904.008-2.581.033-2.947.157-2.646 2.351-2.646 5.399 0 2.252-.162 3.737.734 4.662.777.809 1.843.769 4.501.769 2.581 0 3.697.074 4.501-.761.79-.824.74-1.936.74-4.662zm-1.823-2.737c-.422 0-.765-.356-.765-.793 0-.438.343-.794.765-.794.421 0 .765.356.765.794 0 .438-.343.793-.765.793zm-3.402 6.133c-1.807 0-3.273-1.519-3.273-3.396 0-1.875 1.464-3.396 3.273-3.396 1.807 0 3.273 1.519 3.273 3.396 0 1.875-1.465 3.396-3.273 3.396zm0-5.601c-1.174 0-2.125.987-2.125 2.205s.951 2.204 2.125 2.204S8.79 8.159 8.79 6.941c0-1.218-.95-2.205-2.124-2.205z"/>
</svg>
