<svg xmlns="http://www.w3.org/2000/svg" width="14" height="12">
    <path fill-rule="evenodd" d="M12.607 3.358c.532-.39.979-.877 1.343-1.438a5.45 5.45 0 0 1-1.544.437c.556-.342.98-.882 1.18-1.531-.518.32-1.09.545-1.7.671A2.646 2.646 0 0 0 9.929.621c-1.484 0-2.678 1.244-2.678 2.77 0 .219.017.43.062.631-2.228-.112-4.2-1.215-5.524-2.897-.231.415-.367.89-.367 1.4 0 .959.477 1.809 1.19 2.301a2.57 2.57 0 0 1-1.211-.341v.031c0 1.346.929 2.463 2.147 2.721a2.577 2.577 0 0 1-.702.091c-.172 0-.345-.01-.507-.047.347 1.097 1.333 1.903 2.504 1.929a5.277 5.277 0 0 1-3.965 1.143 7.372 7.372 0 0 0 4.112 1.243c4.729 0 7.811-4.077 7.617-8.238z"/>
</svg>
